<svg width="150" height="33" viewBox="0 0 150 33" fill="none" xmlns="http://www.w3.org/2000/svg">
<path d="M145.258 32.2819C145.106 32.2819 144.969 32.2364 144.848 32.1452C144.757 32.0236 144.711 31.8868 144.711 31.7348V0.912379C144.711 0.760395 144.757 0.638807 144.848 0.547616C144.969 0.426028 145.106 0.365234 145.258 0.365234H149.453C149.605 0.365234 149.726 0.426028 149.818 0.547616C149.939 0.638807 150 0.760395 150 0.912379V31.7348C150 31.8868 149.939 32.0236 149.818 32.1452C149.726 32.2364 149.605 32.2819 149.453 32.2819H145.258Z" fill="#F705A9"/>
<path d="M143.479 4.37762C143.479 4.5296 143.418 4.66639 143.296 4.78798C143.205 4.87917 143.084 4.92477 142.932 4.92477H133.129C132.977 4.92477 132.901 5.00076 132.901 5.15274V13.7703C132.901 13.9222 132.977 13.9982 133.129 13.9982H138.919C139.071 13.9982 139.193 14.059 139.284 14.1806C139.406 14.2718 139.466 14.3934 139.466 14.5454V18.0562C139.466 18.2082 139.406 18.345 139.284 18.4666C139.193 18.5578 139.071 18.6034 138.919 18.6034H133.129C132.977 18.6034 132.901 18.6793 132.901 18.8313V31.7348C132.901 31.8868 132.84 32.0236 132.718 32.1452C132.627 32.2364 132.506 32.2819 132.354 32.2819H128.159C128.007 32.2819 127.87 32.2364 127.748 32.1452C127.657 32.0236 127.612 31.8868 127.612 31.7348V0.912379C127.612 0.760395 127.657 0.638807 127.748 0.547616C127.87 0.426028 128.007 0.365234 128.159 0.365234H142.932C143.084 0.365234 143.205 0.426028 143.296 0.547616C143.418 0.638807 143.479 0.760395 143.479 0.912379V4.37762Z" fill="#F705A9"/>
<path d="M122.187 32.373C121.245 32.373 120.47 32.069 119.862 31.4611C119.254 30.8531 118.95 30.078 118.95 29.1357C118.95 28.1934 119.254 27.4183 119.862 26.8103C120.47 26.2024 121.245 25.8984 122.187 25.8984C123.129 25.8984 123.889 26.2024 124.467 26.8103C125.075 27.4183 125.379 28.1934 125.379 29.1357C125.379 30.078 125.075 30.8531 124.467 31.4611C123.859 32.069 123.099 32.373 122.187 32.373Z" fill="#F705A9"/>
<path d="M109.8 32.2363C109.648 32.2363 109.511 32.1908 109.389 32.0996C109.298 31.978 109.253 31.8412 109.253 31.6892V19.2417L109.207 18.9681L102.869 1.00357C102.839 0.942776 102.824 0.866783 102.824 0.775592C102.824 0.50202 102.991 0.365234 103.325 0.365234H107.702C108.037 0.365234 108.25 0.517219 108.341 0.821187L111.76 12.5392C111.791 12.6304 111.836 12.676 111.897 12.676C111.958 12.676 112.004 12.6304 112.034 12.5392L115.454 0.821187C115.545 0.517219 115.758 0.365234 116.092 0.365234H120.469C120.652 0.365234 120.788 0.426028 120.879 0.547616C120.971 0.638807 120.986 0.790791 120.925 1.00357L114.587 18.9681L114.542 19.2417V31.6892C114.542 31.8412 114.481 31.978 114.359 32.0996C114.268 32.1908 114.147 32.2363 113.995 32.2363H109.8Z" fill="#F705A9"/>
<path d="M101.54 0.365234C101.692 0.365234 101.814 0.426028 101.905 0.547616C102.026 0.638807 102.087 0.760395 102.087 0.912379V4.37762C102.087 4.5296 102.026 4.66639 101.905 4.78798C101.814 4.87917 101.692 4.92477 101.54 4.92477H95.7495C95.5975 4.92477 95.5215 5.00076 95.5215 5.15274V31.7348C95.5215 31.8868 95.4607 32.0236 95.3391 32.1452C95.2479 32.2364 95.1263 32.2819 94.9743 32.2819H90.7796C90.6276 32.2819 90.4908 32.2364 90.3692 32.1452C90.278 32.0236 90.2324 31.8868 90.2324 31.7348V5.15274C90.2324 5.00076 90.1564 4.92477 90.0045 4.92477H84.533C84.381 4.92477 84.2442 4.87917 84.1227 4.78798C84.0315 4.66639 83.9859 4.5296 83.9859 4.37762V0.912379C83.9859 0.760395 84.0315 0.638807 84.1227 0.547616C84.2442 0.426028 84.381 0.365234 84.533 0.365234H101.54Z" fill="#F705A9"/>
<path d="M75.1483 32.6462C72.6254 32.6462 70.5888 31.8863 69.0385 30.3665C67.4883 28.8466 66.7132 26.8556 66.7132 24.3935V23.208C66.7132 23.056 66.7588 22.9344 66.85 22.8432C66.9716 22.7217 67.1083 22.6609 67.2603 22.6609H71.4095C71.5615 22.6609 71.6831 22.7217 71.7743 22.8432C71.8958 22.9344 71.9566 23.056 71.9566 23.208V24.1199C71.9566 25.3054 72.2454 26.2629 72.8229 26.9924C73.4309 27.7219 74.206 28.0867 75.1483 28.0867C76.0906 28.0867 76.8657 27.7523 77.4737 27.0836C78.0816 26.3845 78.3856 25.4726 78.3856 24.3479C78.3856 23.5576 78.2184 22.8736 77.884 22.2961C77.5497 21.7186 77.0785 21.1714 76.4706 20.6547C75.8626 20.1379 74.8899 19.3932 73.5525 18.4205C72.0326 17.3262 70.8016 16.3535 69.8593 15.5024C68.9473 14.6513 68.1722 13.633 67.5339 12.4475C66.926 11.2316 66.622 9.83338 66.622 8.25275C66.622 5.72981 67.3819 3.72361 68.9018 2.23417C70.4216 0.744722 72.4278 0 74.9203 0C77.4433 0 79.4799 0.790318 81.0301 2.37095C82.5803 3.92119 83.3555 5.98818 83.3555 8.57191V9.6662C83.3555 9.81818 83.2947 9.95497 83.1731 10.0766C83.0819 10.1678 82.9603 10.2133 82.8083 10.2133H78.7047C78.5528 10.2133 78.416 10.1678 78.2944 10.0766C78.2032 9.95497 78.1576 9.81818 78.1576 9.6662V8.48072C78.1576 7.29525 77.8536 6.35294 77.2457 5.65381C76.6681 4.92429 75.893 4.55953 74.9203 4.55953C74.0084 4.55953 73.2637 4.89389 72.6862 5.56262C72.1086 6.20096 71.8198 7.09767 71.8198 8.25275C71.8198 9.34703 72.1238 10.2741 72.7318 11.0341C73.3701 11.794 74.6012 12.8427 76.425 14.1801C78.2792 15.548 79.6774 16.6727 80.6197 17.5542C81.562 18.4053 82.2916 19.3476 82.8083 20.3811C83.3251 21.4146 83.5834 22.6457 83.5834 24.0743C83.5834 26.658 82.8083 28.7402 81.2581 30.3209C79.7078 31.8711 77.6712 32.6462 75.1483 32.6462Z" fill="#F705A9"/>
<path d="M60.8846 32.2819C60.5806 32.2819 60.383 32.13 60.2918 31.826L56.4162 18.7401C56.3554 18.6186 56.2795 18.5578 56.1883 18.5578H53.7717C53.6197 18.5578 53.5437 18.6338 53.5437 18.7857V31.7348C53.5437 31.8868 53.4829 32.0236 53.3614 32.1452C53.2702 32.2364 53.1486 32.2819 52.9966 32.2819H48.8018C48.6498 32.2819 48.5131 32.2364 48.3915 32.1452C48.3003 32.0236 48.2547 31.8868 48.2547 31.7348V0.912379C48.2547 0.760395 48.3003 0.638807 48.3915 0.547616C48.5131 0.426028 48.6498 0.365234 48.8018 0.365234H57.3737C58.9848 0.365234 60.3982 0.760394 61.6141 1.55071C62.8604 2.31063 63.8179 3.40492 64.4866 4.83357C65.1857 6.23183 65.5353 7.84286 65.5353 9.66668C65.5353 11.5513 65.1705 13.1775 64.441 14.5454C63.7115 15.9132 62.6932 16.9467 61.3861 17.6459C61.2645 17.6763 61.2189 17.7674 61.2493 17.9194L65.7177 31.6436C65.7481 31.7044 65.7633 31.7804 65.7633 31.8716C65.7633 32.1452 65.5961 32.2819 65.2617 32.2819H60.8846ZM53.7717 4.92477C53.6197 4.92477 53.5437 5.00076 53.5437 5.15274V14.2262C53.5437 14.3782 53.6197 14.4542 53.7717 14.4542H56.553C57.6473 14.4542 58.5288 14.0286 59.1976 13.1775C59.8967 12.3264 60.2462 11.1713 60.2462 9.71227C60.2462 8.25322 59.8967 7.09814 59.1976 6.24703C58.5288 5.36552 57.6473 4.92477 56.553 4.92477H53.7717Z" fill="#F705A9"/>
<path d="M40.4293 32.2819C40.2773 32.2819 40.1406 32.2364 40.019 32.1452C39.9278 32.0236 39.8822 31.8868 39.8822 31.7348V0.912379C39.8822 0.760395 39.9278 0.638807 40.019 0.547616C40.1406 0.426028 40.2773 0.365234 40.4293 0.365234H44.6241C44.7761 0.365234 44.8977 0.426028 44.9889 0.547616C45.1104 0.638807 45.1712 0.760395 45.1712 0.912379V31.7348C45.1712 31.8868 45.1104 32.0236 44.9889 32.1452C44.8977 32.2364 44.7761 32.2819 44.6241 32.2819H40.4293Z" fill="#F705A9"/>
<path d="M31.5142 0.912379C31.5142 0.760395 31.5598 0.638807 31.651 0.547616C31.7726 0.426028 31.9094 0.365234 32.0614 0.365234H36.2561C36.4081 0.365234 36.5297 0.426028 36.6209 0.547616C36.7425 0.638807 36.8033 0.760395 36.8033 0.912379V31.7348C36.8033 31.8868 36.7425 32.0236 36.6209 32.1452C36.5297 32.2364 36.4081 32.2819 36.2561 32.2819H32.0614C31.9094 32.2819 31.7726 32.2364 31.651 32.1452C31.5598 32.0236 31.5142 31.8868 31.5142 31.7348V18.8313C31.5142 18.6793 31.4382 18.6034 31.2863 18.6034H25.4957C25.3437 18.6034 25.2677 18.6793 25.2677 18.8313V31.7348C25.2677 31.8868 25.2069 32.0236 25.0853 32.1452C24.9941 32.2364 24.8725 32.2819 24.7205 32.2819H20.5258C20.3738 32.2819 20.237 32.2364 20.1154 32.1452C20.0242 32.0236 19.9786 31.8868 19.9786 31.7348V0.912379C19.9786 0.760395 20.0242 0.638807 20.1154 0.547616C20.237 0.426028 20.3738 0.365234 20.5258 0.365234H24.7205C24.8725 0.365234 24.9941 0.426028 25.0853 0.547616C25.2069 0.638807 25.2677 0.760395 25.2677 0.912379V13.7703C25.2677 13.9222 25.3437 13.9982 25.4957 13.9982H31.2863C31.4382 13.9982 31.5142 13.9222 31.5142 13.7703V0.912379Z" fill="#F705A9"/>
<path d="M17.5542 0.365234C17.7062 0.365234 17.8278 0.426028 17.9189 0.547616C18.0405 0.638807 18.1013 0.760395 18.1013 0.912379V4.37762C18.1013 4.5296 18.0405 4.66639 17.9189 4.78798C17.8278 4.87917 17.7062 4.92477 17.5542 4.92477H11.7636C11.6116 4.92477 11.5356 5.00076 11.5356 5.15274V31.7348C11.5356 31.8868 11.4748 32.0236 11.3532 32.1452C11.262 32.2364 11.1404 32.2819 10.9885 32.2819H6.7937C6.64171 32.2819 6.50493 32.2364 6.38334 32.1452C6.29215 32.0236 6.24655 31.8868 6.24655 31.7348V5.15274C6.24655 5.00076 6.17056 4.92477 6.01858 4.92477H0.547144C0.395159 4.92477 0.258373 4.87917 0.136786 4.78798C0.0455953 4.66639 0 4.5296 0 4.37762V0.912379C0 0.760395 0.0455953 0.638807 0.136786 0.547616C0.258373 0.426028 0.395159 0.365234 0.547144 0.365234H17.5542Z" fill="#F705A9"/>
</svg>
