<svg width="88" height="32" viewBox="0 0 88 32" fill="none" xmlns="http://www.w3.org/2000/svg">
<path d="M87.6912 29.6883C87.6912 30.6863 86.8829 31.4946 85.8849 31.4946H82.319C81.321 31.4946 80.5127 30.6863 80.5127 29.6883C80.5127 29.6513 81.2175 9.4835 81.2175 9.4835C81.2372 9.31593 81.2668 8.04928 82.6123 8.05667H85.5916C86.9371 8.04928 86.9692 9.31593 86.9864 9.4835C86.9864 9.4835 87.6912 29.6513 87.6912 29.6883Z" fill="#D4CFFF"/>
<path d="M86.8156 4.54925C86.7909 5.2984 86.1773 5.89969 85.4208 5.89969H82.7815C82.025 5.89969 81.4089 5.2984 81.3867 4.54925L81.4927 1.53542C81.4927 0.414163 82.402 0.140625 82.8899 0.140625H85.3173C85.8052 0.140625 86.7145 0.414163 86.7145 1.53542L86.8205 4.54925H86.8156Z" fill="#D4CFFF"/>
<path d="M39.1462 31.9992C32.776 31.5285 27.4458 26.3067 28.153 19.6974L29.2595 9.86737C29.3531 9.1478 29.7203 8.04872 30.5508 7.7875C31.0905 7.61747 31.539 7.477 32.8155 7.07286C33.9835 6.70321 34.6317 7.49425 34.6218 8.70669L33.9836 19.212C33.7741 22.5215 35.923 25.4738 39.1438 26.1514C42.3646 25.4738 44.516 22.5191 44.304 19.212L43.6658 8.70669C43.6559 7.49425 44.3065 6.70075 45.4721 7.07286C46.7486 7.47947 47.1996 7.61747 47.7368 7.7875C48.5697 8.05118 48.9344 9.1478 49.0281 9.86737L50.1345 19.6974C50.8418 26.3067 45.5115 31.5285 39.1413 31.9992H39.1462Z" fill="#D4CFFF"/>
<path fill-rule="evenodd" clip-rule="evenodd" d="M19.1418 0.777346C17.5449 0.294343 15.4404 -0.999414 15.2753 1.80742C15.3566 4.02282 15.4355 6.22098 15.5168 8.43638C15.5365 9.16828 15.1743 9.84103 14.61 10.1195C13.4813 10.6542 12.333 11.1693 11.1846 11.6819C10.0362 11.1865 8.88786 10.6518 7.75922 10.1195C7.17518 9.84349 6.83264 9.16828 6.85236 8.43638C6.93368 6.22098 7.01253 4.02282 7.09386 1.80742C7.13329 0.619629 6.26832 -0.250266 5.38117 0.0651639C4.1022 0.614702 2.26137 0.555557 2.13816 2.3816C1.93608 4.99376 1.7143 7.60591 1.51469 10.1983C1.45308 10.9302 1.79562 11.603 2.35994 11.9012C3.62906 12.5542 3.5083 14.6908 2.11844 15.1861C1.49497 15.4029 1.03169 16.0166 0.970081 16.7485C0.647258 20.7258 0.324432 24.7229 0.00407347 28.7003C-0.114213 30.6964 2.37227 30.7802 3.73009 31.4702C4.83903 31.8866 6.02682 31.0734 6.06625 29.8881C6.187 26.3075 6.32746 22.7244 6.44821 19.124C6.46793 18.3921 6.9115 17.7588 7.53497 17.5222C8.76465 17.0466 9.97216 16.571 11.1797 16.0584C12.3872 16.5538 13.5971 17.0491 14.8268 17.5222C15.4503 17.7588 15.8939 18.3921 15.9136 19.124C16.0343 22.7071 16.1748 26.2877 16.2955 29.8881C16.335 31.0759 17.5228 31.8669 18.6317 31.4702C19.9945 30.7851 22.4588 30.6964 22.3577 28.7003C22.0349 24.7229 21.7121 20.7258 21.3917 16.7485C21.3301 16.0166 20.889 15.4029 20.2433 15.1861C18.8535 14.7105 18.7327 12.5542 20.0018 11.9012C20.5859 11.6055 20.9087 10.913 20.8471 10.1983C20.645 7.5862 20.4232 4.97404 20.2236 2.3816C20.162 1.61028 19.7209 0.957238 19.1369 0.779808L19.1418 0.777346Z" fill="#D4CFFF"/>
<path d="M57.6536 31.5292H60.1129C61.4215 31.5292 62.5107 30.5927 62.7448 29.3556L63.0504 19.4689C63.0602 19.2496 62.9814 16.6251 66.1948 16.6251H73.9721C74.6597 16.5758 75.2117 16.0312 75.2659 15.3461C75.2659 15.3461 75.1378 13.2835 75.1378 13.281C74.9307 11.9898 73.6247 11.901 73.6124 11.901C73.6124 11.901 65.0883 11.901 65.0637 11.901C63.2475 11.7285 63.3436 9.8261 63.3461 9.82363L63.4619 6.06065C63.4619 6.06065 63.4619 4.27157 65.1475 4.12372C65.1918 4.11879 73.9327 4.12372 73.9327 4.12372C74.5217 4.07689 74.9874 3.59882 75.0195 3.00492L74.8913 1.19613C74.8396 0.880701 74.5833 0.109375 73.5261 0.109375C73.5261 0.109375 60.4136 0.109375 60.3963 0.109375C59.0557 0.134018 57.9542 1.14192 57.7866 2.4406L57.4737 6.72601L57.2149 10.4989C57.141 11.2652 57.4712 11.9848 58.1045 12.3175C59.4254 12.9779 59.1987 14.9272 57.8926 15.7182C57.003 16.2554 56.7935 16.4822 56.6186 18.8627C56.6186 18.8627 55.8398 29.708 55.8398 29.8017C55.8398 29.8953 55.9828 31.5316 57.6462 31.5316L57.6536 31.5292Z" fill="#D4CFFF"/>
</svg>
