<svg xmlns="http://www.w3.org/2000/svg" width="87" height="32" viewBox="0 0 87 32" fill="none">
  <path d="M79.032 31.7094V9.38782H86.1383V31.7094H79.032ZM82.5924 6.78655C81.5945 6.78655 80.7371 6.45715 80.0202 5.79835C79.3033 5.12987 78.9448 4.32575 78.9448 3.386C78.9448 2.45594 79.3033 1.66151 80.0202 1.00271C80.7371 0.334227 81.5945 -1.52588e-05 82.5924 -1.52588e-05C83.6 -1.52588e-05 84.4574 0.334227 85.1646 1.00271C85.8816 1.66151 86.24 2.45594 86.24 3.386C86.24 4.32575 85.8816 5.12987 85.1646 5.79835C84.4574 6.45715 83.6 6.78655 82.5924 6.78655Z" fill="#D4CFFF"/>
  <path d="M55.6057 31.7092V1.94716H75.9218V7.78912H62.7992V13.8927H74.6285V19.7492H62.7992V31.7092H55.6057Z" fill="#D4CFFF"/>
  <path d="M44.5018 22.0745V9.38783H51.5936V31.7094H44.8215V27.5531H44.589C44.0949 28.9192 43.2521 30.0043 42.0604 30.8084C40.8785 31.6028 39.4494 32 37.7734 32C36.2523 32 34.9154 31.6512 33.7625 30.9537C32.6096 30.2561 31.7134 29.2825 31.074 28.0327C30.4346 26.7732 30.11 25.3006 30.1003 23.6149V9.38783H37.2066V22.2198C37.2163 23.4308 37.536 24.3851 38.1658 25.0827C38.7955 25.7802 39.6529 26.129 40.738 26.129C41.4452 26.129 42.0798 25.974 42.6417 25.6639C43.2133 25.3442 43.6638 24.8841 43.9932 24.2834C44.3323 23.673 44.5018 22.9367 44.5018 22.0745Z" fill="#D4CFFF"/>
  <path d="M0 31.7092V1.94716H7.19348V13.8927H18.921V1.94716H26.1V31.7092H18.921V19.7492H7.19348V31.7092H0Z" fill="#D4CFFF"/>
</svg>